<svg width="24" height="24" viewBox="0 0 24 24" fill="none" xmlns="http://www.w3.org/2000/svg">
<g clip-path="url(#clip0_10_5)">
<path d="M12 0.000534058C5.37328 0.000534058 0 5.37276 0 12C0 18.6273 5.37275 23.9995 12 23.9995C18.6278 23.9995 24 18.6273 24 12C24 5.37276 18.6278 0.000534058 12 0.000534058ZM12 3.58852C13.0527 3.58845 14.0622 4.00655 14.8066 4.75084C15.551 5.49514 15.9693 6.50466 15.9693 7.55733C15.9694 8.60999 15.5513 9.61957 14.807 10.364C14.0627 11.1084 13.0532 11.5266 12.0005 11.5267C10.9479 11.5267 9.93828 11.1086 9.19389 10.3643C8.44949 9.62004 8.03126 8.61052 8.03119 7.55786C8.03112 6.50519 8.44922 5.49561 9.19352 4.75122C9.93781 4.00682 10.9473 3.58859 12 3.58852ZM11.9974 20.8622C9.89458 20.8645 7.86035 20.1144 6.2625 18.7474C6.07655 18.5888 5.9272 18.3917 5.82474 18.1697C5.72228 17.9478 5.66914 17.7063 5.66898 17.4618C5.66898 15.239 7.46798 13.4601 9.69129 13.4601H14.3098C16.5336 13.4601 18.3257 15.239 18.3257 17.4618C18.3259 17.7062 18.2729 17.9477 18.1706 18.1696C18.0682 18.3915 17.9188 18.5885 17.7328 18.7469C16.135 20.1144 14.1004 20.8648 11.9974 20.8622Z" fill="white"/>
</g>
<defs>
<clipPath id="clip0_10_5">
<rect width="24" height="24" fill="white"/>
</clipPath>
</defs>
</svg>
