<svg xmlns="http://www.w3.org/2000/svg" version="1.1" xmlns:xlink="http://www.w3.org/1999/xlink" xmlns:svgjs="http://svgjs.com/svgjs" width="512" height="512" x="0" y="0" viewBox="0 0 512 512" style="enable-background:new 0 0 512 512" xml:space="preserve" class=""><g transform="matrix(1.0699999999999994,0,0,1.0699999999999994,82.08000000000015,152.08000000000015)"><path d="M33.067 136.533h444.8V467.2h-444.8z" style="" fill="#f15956" data-original="#ffd15c" class=""></path><path d="M283.733 228.267h162.133V467.2H283.733z" style="" fill="#f15956" data-original="#415a6b" class=""></path><path d="M299.733 244.267h130.133V451.2H299.733z" style="" fill="#f15956" data-original="#8ad7f8" class=""></path><path d="M0 102.4v48c0 28.8 22.4 51.2 51.2 51.2s51.2-22.4 51.2-51.2v-48H0z" style="" fill="#eceaf5" data-original="#f05540" class=""></path><path d="M102.4 102.4v48c0 28.8 22.4 51.2 51.2 51.2s51.2-22.4 51.2-51.2v-48H102.4z" style="" fill="#eceaf5" data-original="#e8eae9" class=""></path><path d="M204.8 102.4v48c0 28.8 22.4 51.2 51.2 51.2 28.8 0 51.2-22.4 51.2-51.2v-48H204.8z" style="" fill="#eceaf5" data-original="#f05540" class=""></path><path d="M307.2 102.4v48c0 28.8 22.4 51.2 51.2 51.2 28.8 0 51.2-22.4 51.2-51.2v-48H307.2z" style="" fill="#eceaf5" data-original="#e8eae9" class=""></path><path d="M409.6 102.4v48c0 28.8 22.4 51.2 51.2 51.2s51.2-22.4 51.2-51.2v-48H409.6z" style="" fill="#eceaf5" data-original="#f05540" class=""></path><path d="M124.8 0H37.333L0 102.4h102.4z" style="" fill="#eceaf5" data-original="#f3705a" class=""></path><path d="M212.267 0H124.8l-22.4 102.4h102.4z" style="" fill="#eceaf5" data-original="#f3f3f3" class=""></path><path d="M299.733 0h-87.466L204.8 102.4h102.4z" style="" fill="#eceaf5" data-original="#f3705a" class=""></path><path d="M387.2 0h-87.467l7.467 102.4h102.4z" style="" fill="#eceaf5" data-original="#f3f3f3" class=""></path><path d="M474.667 0H387.2l22.4 102.4H512z" style="" fill="#eceaf5" data-original="#f3705a" class=""></path><path d="M0 467.2h512V512H0z" style="" fill="#f15956" data-original="#ced6e0" class=""></path><circle cx="320" cy="347.733" r="13.867" style="" fill="#f15956" data-original="#415a6b" class=""></circle><path d="M65.067 228.267h180.267V390.4H65.067z" style="" fill="#f15956" data-original="#415a6b" class=""></path><path d="M81.067 244.267h148.267V374.4H81.067z" style="" fill="#f15956" data-original="#8ad7f8" class=""></path><path d="M158.933 264.533c-2.133-2.133-7.467-2.133-9.6 0L97.067 316.8c-2.133 2.133-2.133 7.467 0 9.6s7.467 2.133 9.6 0l52.267-52.267c3.199-3.2 3.199-7.466-.001-9.6zM170.667 295.467c-2.133-2.133-7.467-2.133-9.6 0L128 328.533c-2.133 2.133-2.133 7.467 0 9.6s7.467 2.133 9.6 0l33.067-33.067c3.2-3.199 3.2-7.466 0-9.599z" style="" fill="#f15956" data-original="#55c0eb" class=""></path></g></svg>