<svg width="24" height="24" viewBox="0 0 24 24" fill="none" xmlns="http://www.w3.org/2000/svg">
<circle cx="12" cy="10" r="7" fill="white"/>
<path d="M12 0.75C9.61387 0.75268 7.32625 1.70175 5.639 3.389C3.95175 5.07625 3.00268 7.36387 3 9.75C3 16.6102 11.4188 22.9117 11.7773 23.1765C11.8418 23.2241 11.9198 23.2498 12 23.2498C12.0802 23.2498 12.1582 23.2241 12.2228 23.1765C12.5813 22.9117 21 16.6102 21 9.75C20.9973 7.36387 20.0482 5.07625 18.361 3.389C16.6738 1.70175 14.3861 0.75268 12 0.75ZM12 16.5C10.665 16.5 9.35993 16.1041 8.2499 15.3624C7.13987 14.6207 6.2747 13.5665 5.76381 12.3331C5.25292 11.0997 5.11925 9.74251 5.3797 8.43314C5.64015 7.12377 6.28302 5.92103 7.22703 4.97703C8.17103 4.03302 9.37377 3.39015 10.6831 3.1297C11.9925 2.86925 13.3497 3.00292 14.5831 3.51381C15.8165 4.0247 16.8707 4.88987 17.6124 5.9999C18.3541 7.10993 18.75 8.41498 18.75 9.75C18.748 11.5396 18.0362 13.2553 16.7708 14.5208C15.5053 15.7862 13.7896 16.498 12 16.5ZM15.9825 7.125H8.02125L8.66625 5.83125C8.69661 5.76877 8.7441 5.7162 8.80319 5.67969C8.86228 5.64317 8.93054 5.6242 9 5.625H15C15.0695 5.6242 15.1377 5.64317 15.1968 5.67969C15.2559 5.7162 15.3034 5.76877 15.3337 5.83125L15.9825 7.125ZM7.875 7.875H16.125V8.205C16.1296 8.46414 16.0471 8.71734 15.8907 8.92403C15.7344 9.13073 15.5131 9.27896 15.2625 9.345C15.0851 9.38716 14.9001 9.38528 14.7236 9.33952C14.5472 9.29377 14.3846 9.20553 14.25 9.0825C14.0455 9.27061 13.7778 9.37501 13.5 9.37501C13.2222 9.37501 12.9545 9.27061 12.75 9.0825C12.5455 9.27061 12.2778 9.37501 12 9.37501C11.7222 9.37501 11.4545 9.27061 11.25 9.0825C11.0455 9.27061 10.7778 9.37501 10.5 9.37501C10.2222 9.37501 9.95447 9.27061 9.75 9.0825C9.61545 9.20553 9.45284 9.29377 9.27636 9.33952C9.09987 9.38528 8.91488 9.38716 8.7375 9.345C8.48687 9.27896 8.26565 9.13073 8.10927 8.92403C7.95288 8.71734 7.87039 8.46414 7.875 8.205V7.875ZM15 10.125C15.126 10.1255 15.2516 10.113 15.375 10.0875V13.5C15.3747 13.5994 15.3351 13.6946 15.2648 13.7648C15.1946 13.8351 15.0994 13.8747 15 13.875H13.125V11.25C13.125 11.1505 13.0855 11.0552 13.0152 10.9848C12.9448 10.9145 12.8495 10.875 12.75 10.875H11.25C11.1505 10.875 11.0552 10.9145 10.9848 10.9848C10.9145 11.0552 10.875 11.1505 10.875 11.25V13.875H9C8.90064 13.8747 8.80542 13.8351 8.73516 13.7648C8.6649 13.6946 8.6253 13.5994 8.625 13.5V10.0875C8.74836 10.113 8.87404 10.1255 9 10.125C9.25808 10.1238 9.51323 10.0702 9.75 9.9675C9.9864 10.0714 10.2418 10.125 10.5 10.125C10.7582 10.125 11.0136 10.0714 11.25 9.9675C11.4864 10.0714 11.7418 10.125 12 10.125C12.2582 10.125 12.5136 10.0714 12.75 9.9675C12.9864 10.0714 13.2418 10.125 13.5 10.125C13.7582 10.125 14.0136 10.0714 14.25 9.9675C14.4868 10.0702 14.7419 10.1238 15 10.125Z" fill="#F15956"/>
</svg>
