<svg width="24" height="24" viewBox="0 0 24 24" fill="none" xmlns="http://www.w3.org/2000/svg">
<circle cx="12" cy="10" r="6.5" fill="white" stroke="white"/>
<circle cx="12" cy="10" r="6" fill="#F15956"/>
<path d="M12 1C9.61387 1.00268 7.32625 1.95175 5.639 3.639C3.95175 5.32625 3.00268 7.61387 3 10C3 16.8602 11.4188 23.1617 11.7773 23.4265C11.8418 23.4741 11.9198 23.4998 12 23.4998C12.0802 23.4998 12.1582 23.4741 12.2228 23.4265C12.5813 23.1617 21 16.8602 21 10C20.9973 7.61387 20.0482 5.32625 18.361 3.639C16.6738 1.95175 14.3861 1.00268 12 1ZM12 16.75C10.665 16.75 9.35993 16.3541 8.2499 15.6124C7.13987 14.8707 6.2747 13.8165 5.76381 12.5831C5.25292 11.3497 5.11925 9.99251 5.3797 8.68314C5.64015 7.37377 6.28302 6.17103 7.22703 5.22703C8.17103 4.28302 9.37377 3.64015 10.6831 3.3797C11.9925 3.11925 13.3497 3.25292 14.5831 3.76381C15.8165 4.2747 16.8707 5.13987 17.6124 6.2499C18.3541 7.35993 18.75 8.66498 18.75 10C18.748 11.7896 18.0362 13.5053 16.7708 14.7708C15.5053 16.0362 13.7896 16.748 12 16.75Z" fill="#F15956"/>
<path d="M12 4C8.68664 4 6 6.68623 6 10C6 13.3138 8.68637 16 12 16C15.3139 16 18 13.3138 18 10C18 6.68623 15.3139 4 12 4ZM12 5.79407C12.5263 5.79404 13.0311 6.0031 13.4033 6.37526C13.7755 6.74742 13.9846 7.25221 13.9847 7.77856C13.9847 8.30492 13.7757 8.80973 13.4035 9.18194C13.0314 9.55416 12.5266 9.76329 12.0003 9.76332C11.4739 9.76336 10.9691 9.5543 10.5969 9.18213C10.2247 8.80997 10.0156 8.30518 10.0156 7.77883C10.0156 7.25247 10.2246 6.74766 10.5968 6.37545C10.9689 6.00323 11.4737 5.7941 12 5.79407ZM11.9987 14.4313C10.9473 14.4324 9.93018 14.0574 9.13125 13.3739C9.03827 13.2945 8.9636 13.196 8.91237 13.085C8.86114 12.974 8.83457 12.8533 8.83449 12.731C8.83449 11.6196 9.73399 10.7301 10.8456 10.7301H13.1549C14.2668 10.7301 15.1629 11.6196 15.1629 12.731C15.1629 12.8532 15.1365 12.974 15.0853 13.0849C15.0341 13.1959 14.9594 13.2944 14.8664 13.3736C14.0675 14.0574 13.0502 14.4326 11.9987 14.4313Z" fill="white"/>
</svg>
