<svg xmlns="http://www.w3.org/2000/svg" version="1.1" xmlns:xlink="http://www.w3.org/1999/xlink" xmlns:svgjs="http://svgjs.com/svgjs" width="512" height="512" x="0" y="0" viewBox="0 0 64 64" style="enable-background:new 0 0 512 512" xml:space="preserve" class=""><g><path d="M41.807 14.879s-1.635 8.191-9.806 8.191c-8.172 0-9.805-8.191-9.805-8.191C10.066 14.879 0 38.258 0 38.258l10.838 5.255 3.869-5.255V64h34.584V38.258l3.869 5.255L64 38.258S53.934 14.879 41.807 14.879z" fill="#000000" data-original="#000000" class=""></path><path d="M40.506 14.465h-7.328v-1.634c2.848-.577 5.004-3.208 5.004-6.355C38.182 2.904 35.408 0 32 0c-3.41 0-6.182 2.904-6.182 6.476h2.357c0-2.209 1.715-4.007 3.824-4.007s3.824 1.798 3.824 4.007-1.714 4.005-3.823 4.005h-1.18v3.983h-7.326v2.468h17.011v-2.467z" fill="#000000" data-original="#000000" class=""></path></g></svg>