<svg xmlns="http://www.w3.org/2000/svg" version="1.1" xmlns:xlink="http://www.w3.org/1999/xlink" xmlns:svgjs="http://svgjs.com/svgjs" width="512" height="512" x="0" y="0" viewBox="0 0 512 512" style="enable-background:new 0 0 512 512" xml:space="preserve" class=""><g><path d="M407.378 229.747c-16.231-21.569-58.661-16.994-94.826 10.185-32.408 24.401-48.639 58.661-39.924 81.047a120.568 120.568 0 0 0-16.667 16.994l-4.684-100.219c6.046-11.22 13.725-19.771 21.296-26.253 14.652 16.449 49.401 12.201 79.194-10.185 30.665-23.094 44.336-56.7 30.556-75-13.78-18.355-49.837-14.434-80.502 8.66-27.179 20.425-41.013 49.129-34.259 68.138a102.86 102.86 0 0 0-17.048 18.028l-2.723-57.844c24.673-4.357 43.628-39.379 43.247-81.809-.327-45.207-22.549-81.7-49.565-81.482-26.961.218-48.53 37.092-48.203 82.245.381 41.722 19.227 75.927 43.356 80.829l-3.105 66.395a105.293 105.293 0 0 0-15.087-15.523c6.754-19.009-7.081-47.658-34.259-68.138-30.665-23.094-66.722-27.015-80.502-8.66-13.78 18.301-.109 51.907 30.556 75.001 29.793 22.386 64.543 26.634 79.195 10.185a93.286 93.286 0 0 1 19.336 22.876l-4.249 91.232a106.07 106.07 0 0 0-9.586-9.15c6.754-19.009-7.081-47.658-34.26-68.138-30.665-23.094-66.722-26.961-80.502-8.66-13.835 18.355-.109 51.907 30.556 75.001 29.793 22.44 64.543 26.689 79.194 10.185 4.739 4.085 9.532 8.932 13.943 14.815l-1.035 21.95h30.774l-.926-19.227c6.318-9.749 13.671-17.593 20.915-23.802 16.939 20.153 58.334 15.305 93.792-11.383 36.111-27.181 52.233-66.724 36.002-88.293zM313.907 383.324H170.463a4.923 4.923 0 0 0-4.923 4.923v14.921a4.923 4.923 0 0 0 4.923 4.923h4.45l19.242 95.993a9.846 9.846 0 0 0 9.654 7.911h76.754a9.846 9.846 0 0 0 9.654-7.911l19.242-95.993h4.45a4.923 4.923 0 0 0 4.923-4.923v-14.921a4.926 4.926 0 0 0-4.925-4.923z" fill="#000000" data-original="#000000"></path></g></svg>