<svg xmlns="http://www.w3.org/2000/svg" version="1.1" xmlns:xlink="http://www.w3.org/1999/xlink" xmlns:svgjs="http://svgjs.com/svgjs" width="512" height="512" x="0" y="0" viewBox="0 0 512 512" style="enable-background:new 0 0 512 512" xml:space="preserve" class=""><g transform="matrix(0.93,0,0,0.93,17.92001041412354,17.920034179687434)"><path d="M419.319 69.668c18.496 19.805 27.985 45.619 26.72 72.688s-13.121 51.886-33.383 69.88l-66.293 58.87H512V0H191.358v236.618L399.882 48.854zM186.905 240.628 19.024 89.461c-27.116 29.036-24.982 74.71 4.725 101.09l110.436 98.071v-.523z" fill="#000000" data-original="#000000" class=""></path><path d="M245.397 321.983 393.4 190.551c29.706-26.38 31.841-72.054 4.725-101.09L163.188 301.008l.014 47.571-22.144 22.188c-12.626-9.036-27.653-14.085-43.514-14.423-20.807-.465-40.501 7.233-55.513 21.619-15.012 14.384-23.523 33.753-23.967 54.54-.443 20.786 7.234 40.501 21.619 55.513s33.754 23.522 54.541 23.966c.57.013 1.136.019 1.704.019 20.157-.001 39.209-7.646 53.809-21.638 15.012-14.384 23.523-33.753 23.967-54.54.331-15.524-3.871-30.448-12.011-43.264l23.226-23.272h34.365l23.226 23.272c-8.139 12.816-12.341 27.74-12.01 43.264.443 20.787 8.955 40.156 23.967 54.54 15.061 14.433 34.461 21.602 53.837 21.601 20.49-.001 40.954-8.02 56.216-23.947 14.384-15.012 22.062-34.727 21.619-55.513-.443-20.787-8.955-40.156-23.966-54.54-27.406-26.263-69.178-28.458-99.013-7.183l-17.763-17.798zM128.981 468.702c-9.226 8.84-21.347 13.573-34.117 13.286-12.775-.272-24.679-5.503-33.519-14.729-8.841-9.226-13.56-21.343-13.287-34.117.273-12.775 5.503-24.679 14.729-33.52 8.974-8.599 20.681-13.298 33.07-13.298.348 0 .698.004 1.047.012 12.775.272 24.679 5.503 33.519 14.729 8.841 9.227 13.56 21.343 13.287 34.117-.272 12.776-5.503 24.679-14.729 33.52zm179.348-82.354c11.907 0 23.832 4.407 33.087 13.275 9.226 8.841 14.457 20.744 14.729 33.52.272 12.774-4.446 24.892-13.286 34.117-18.25 19.045-48.592 19.692-67.637 1.441-9.226-8.84-14.457-20.743-14.729-33.519-.272-12.774 4.446-24.892 13.286-34.117 9.382-9.79 21.955-14.717 34.55-14.717z" fill="#000000" data-original="#000000" class=""></path></g></svg>