<svg xmlns="http://www.w3.org/2000/svg" version="1.1" xmlns:xlink="http://www.w3.org/1999/xlink" xmlns:svgjs="http://svgjs.com/svgjs" width="512" height="512" x="0" y="0" viewBox="0 0 512 512" style="enable-background:new 0 0 512 512" xml:space="preserve" class=""><g><path d="M301.184 351.547h-30.32V188.164h47.218l-62.21-121.523-62.212 121.523h47.219v163.383h-30.32v69.832H78.96V512h353.82v-90.621H301.184zm0 0" fill="#000000" data-original="#000000" class=""></path><path d="M481.504 271.426v-83.262h28.836L255.87 0 1.402 188.164h28.676v83.262C12.578 277.617 0 294.324 0 313.922c0 24.851 20.219 45.07 45.07 45.07 24.852 0 45.07-20.219 45.07-45.07 0-19.598-12.574-36.305-30.078-42.496v-83.262h75.375v83.262c-17.503 6.191-30.078 22.898-30.078 42.496 0 24.851 20.22 45.07 45.07 45.07 24.852 0 45.071-20.219 45.071-45.07 0-19.598-12.574-36.305-30.078-42.496v-93.899L255.872.84l90.284 176.363v94.223c-17.5 6.191-30.078 22.898-30.078 42.496 0 24.851 20.219 45.07 45.07 45.07 24.852 0 45.07-20.219 45.07-45.07 0-19.598-12.573-36.305-30.077-42.496v-83.262h75.375v83.262c-17.5 6.191-30.079 22.898-30.079 42.496 0 24.851 20.22 45.07 45.07 45.07 24.852 0 45.071-20.219 45.071-45.07 0-19.598-12.574-36.305-30.074-42.496zm0 0" fill="#000000" data-original="#000000" class=""></path></g></svg>